<svg width="66" height="97" viewBox="0 0 66 97" fill="none" xmlns="http://www.w3.org/2000/svg">
<path fill-rule="evenodd" clip-rule="evenodd" d="M31 8C30.4477 8 30 8.44772 30 9C29.4477 9 29 9.44772 29 10V80H30H31H32V31H31V8ZM35 8C35.5523 8 36 8.44772 36 9C36.5523 9 37 9.44772 37 10V80H36H35H34V31H35V8Z" fill="black"/>
<mask id="path-2-inside-1_85:4" fill="white">
<path fill-rule="evenodd" clip-rule="evenodd" d="M32 1C32 0.447716 32.4477 0 33 0C33.5523 0 34 0.447715 34 1V6.19349C34.5978 6.5393 35 7.18564 35 7.92593V20.7407H39C40.1046 20.7407 41 21.6362 41 22.7407V23.7037H42C43.1046 23.7037 44 24.5991 44 25.7037V31.6049H49C50.1046 31.6049 51 32.5004 51 33.6049V52.3456H53C54.1046 52.3456 55 53.2411 55 54.3456V80H39V54.321V52.3456V31.6049H27V52.3456V52.3457V80H11V54.3456C11 53.2411 11.8954 52.3456 13 52.3456H15V33.6049C15 32.5004 15.8954 31.6049 17 31.6049H22V25.7037C22 24.5991 22.8954 23.7037 24 23.7037H25V22.7407C25 21.6362 25.8954 20.7407 27 20.7407H31V7.92593C31 7.18564 31.4022 6.5393 32 6.19349V1Z"/>
</mask>
<path fill-rule="evenodd" clip-rule="evenodd" d="M32 1C32 0.447716 32.4477 0 33 0C33.5523 0 34 0.447715 34 1V6.19349C34.5978 6.5393 35 7.18564 35 7.92593V20.7407H39C40.1046 20.7407 41 21.6362 41 22.7407V23.7037H42C43.1046 23.7037 44 24.5991 44 25.7037V31.6049H49C50.1046 31.6049 51 32.5004 51 33.6049V52.3456H53C54.1046 52.3456 55 53.2411 55 54.3456V80H39V54.321V52.3456V31.6049H27V52.3456V52.3457V80H11V54.3456C11 53.2411 11.8954 52.3456 13 52.3456H15V33.6049C15 32.5004 15.8954 31.6049 17 31.6049H22V25.7037C22 24.5991 22.8954 23.7037 24 23.7037H25V22.7407C25 21.6362 25.8954 20.7407 27 20.7407H31V7.92593C31 7.18564 31.4022 6.5393 32 6.19349V1Z" fill="#FFC90E"/>
<path d="M34 6.19349H33.75V6.33769L33.8748 6.40989L34 6.19349ZM35 20.7407H34.75V20.9907H35V20.7407ZM41 23.7037H40.75V23.9537H41V23.7037ZM44 31.6049H43.75V31.8549H44V31.6049ZM51 52.3456H50.75V52.5956H51V52.3456ZM55 80V80.25H55.25V80H55ZM39 80H38.75V80.25H39V80ZM39 31.6049H39.25V31.3549H39V31.6049ZM27 31.6049V31.3549H26.75V31.6049H27ZM27 80V80.25H27.25V80H27ZM11 80H10.75V80.25H11V80ZM15 52.3456V52.5956H15.25V52.3456H15ZM22 31.6049V31.8549H22.25V31.6049H22ZM25 23.7037V23.9537H25.25V23.7037H25ZM31 20.7407V20.9907H31.25V20.7407H31ZM32 6.19349L32.1252 6.40989L32.25 6.33769V6.19349H32ZM33 -0.25C32.3096 -0.25 31.75 0.309645 31.75 1H32.25C32.25 0.585787 32.5858 0.25 33 0.25V-0.25ZM34.25 1C34.25 0.309644 33.6904 -0.25 33 -0.25V0.25C33.4142 0.25 33.75 0.585787 33.75 1H34.25ZM34.25 6.19349V1H33.75V6.19349H34.25ZM35.25 7.92593C35.25 7.09279 34.7971 6.36575 34.1252 5.97709L33.8748 6.40989C34.3985 6.71285 34.75 7.27849 34.75 7.92593H35.25ZM35.25 20.7407V7.92593H34.75V20.7407H35.25ZM39 20.4907H35V20.9907H39V20.4907ZM41.25 22.7407C41.25 21.4981 40.2426 20.4907 39 20.4907V20.9907C39.9665 20.9907 40.75 21.7742 40.75 22.7407H41.25ZM41.25 23.7037V22.7407H40.75V23.7037H41.25ZM42 23.4537H41V23.9537H42V23.4537ZM44.25 25.7037C44.25 24.4611 43.2426 23.4537 42 23.4537V23.9537C42.9665 23.9537 43.75 24.7372 43.75 25.7037H44.25ZM44.25 31.6049V25.7037H43.75V31.6049H44.25ZM44 31.8549H49V31.3549H44V31.8549ZM49 31.8549C49.9665 31.8549 50.75 32.6384 50.75 33.6049H51.25C51.25 32.3623 50.2426 31.3549 49 31.3549V31.8549ZM50.75 33.6049V52.3456H51.25V33.6049H50.75ZM51 52.5956H53V52.0956H51V52.5956ZM53 52.5956C53.9665 52.5956 54.75 53.3791 54.75 54.3456H55.25C55.25 53.103 54.2426 52.0956 53 52.0956V52.5956ZM54.75 54.3456V80H55.25V54.3456H54.75ZM55 79.75H39V80.25H55V79.75ZM39.25 80V54.321H38.75V80H39.25ZM39.25 54.321V52.3456H38.75V54.321H39.25ZM39.25 52.3456V31.6049H38.75V52.3456H39.25ZM27 31.8549H39V31.3549H27V31.8549ZM26.75 31.6049V52.3456H27.25V31.6049H26.75ZM26.75 52.3456V52.3457H27.25V52.3456H26.75ZM26.75 52.3457V80H27.25V52.3457H26.75ZM27 79.75H11V80.25H27V79.75ZM11.25 80V54.3456H10.75V80H11.25ZM11.25 54.3456C11.25 53.3791 12.0335 52.5956 13 52.5956V52.0956C11.7574 52.0956 10.75 53.103 10.75 54.3456H11.25ZM13 52.5956H15V52.0956H13V52.5956ZM15.25 52.3456V33.6049H14.75V52.3456H15.25ZM15.25 33.6049C15.25 32.6384 16.0335 31.8549 17 31.8549V31.3549C15.7574 31.3549 14.75 32.3623 14.75 33.6049H15.25ZM17 31.8549H22V31.3549H17V31.8549ZM21.75 25.7037V31.6049H22.25V25.7037H21.75ZM24 23.4537C22.7574 23.4537 21.75 24.4611 21.75 25.7037H22.25C22.25 24.7372 23.0335 23.9537 24 23.9537V23.4537ZM25 23.4537H24V23.9537H25V23.4537ZM24.75 22.7407V23.7037H25.25V22.7407H24.75ZM27 20.4907C25.7574 20.4907 24.75 21.4981 24.75 22.7407H25.25C25.25 21.7742 26.0335 20.9907 27 20.9907V20.4907ZM31 20.4907H27V20.9907H31V20.4907ZM30.75 7.92593V20.7407H31.25V7.92593H30.75ZM31.8748 5.97709C31.2029 6.36575 30.75 7.09279 30.75 7.92593H31.25C31.25 7.27849 31.6015 6.71285 32.1252 6.40989L31.8748 5.97709ZM31.75 1V6.19349H32.25V1H31.75Z" fill="black" mask="url(#path-2-inside-1_85:4)"/>
<path fill-rule="evenodd" clip-rule="evenodd" d="M16 36H26V35.75H16V36ZM26 43H16V42.75H26V43ZM26 45H16V44.75H26V45ZM16 49H26V48.75H16V49ZM26 50H16V49.75H26V50ZM16 51H26V50.75H16V51ZM16 48H26V47.75H16V48ZM26 47H16V46.75H26V47ZM16 46H26V45.75H16V46ZM26 44H16V43.75H26V44ZM50 43H40V42.75H50V43ZM40 36H50V35.75H40V36ZM50 48H40V47.75H50V48ZM40 49H50V48.75H40V49ZM50 51H40V50.75H50V51ZM40 50H50V49.75H40V50ZM50 47H40V46.75H50V47ZM40 46H50V45.75H40V46ZM50 45H40V44.75H50V45ZM40 44H50V43.75H40V44ZM50 37H40V36.75H50V37ZM40 42H50V41.75H40V42ZM50 41H40V40.75H50V41ZM40 40H50V39.75H40V40ZM50 39H40V38.75H50V39ZM40 38H50V37.75H40V38ZM26 42H16V41.75H26V42ZM16 41H26V40.75H16V41ZM26 40H16V39.75H26V40ZM16 39H26V38.75H16V39ZM26 38H16V37.75H26V38ZM16 37H26V36.75H16V37Z" fill="black"/>
<path fill-rule="evenodd" clip-rule="evenodd" d="M53 54H51V56H53V54ZM48 57H46V59H48V57ZM51 66H53V68H51V66ZM51 69H53V71H51V69ZM25 70H23V72H25V70ZM46 69H48V71H46V69ZM43 69H41V71H43V69ZM48 66H46V68H48V66ZM41 66H43V68H41V66ZM51 63H53V65H51V63ZM48 63H46V65H48V63ZM41 63H43V65H41V63ZM53 60H51V62H53V60ZM46 60H48V62H46V60ZM43 60H41V62H43V60ZM51 57H53V59H51V57ZM20 67H18V69H20V67ZM41 57H43V59H41V57ZM46 54H48V56H46V54ZM43 54H41V56H43V54ZM18 61H20V63H18V61ZM15 70H13V72H15V70ZM18 70H20V72H18V70ZM15 67H13V69H15V67ZM23 61H25V63H23V61ZM25 67H23V69H25V67ZM23 64H25V66H23V64ZM20 64H18V66H20V64ZM13 64H15V66H13V64ZM15 55H13V57H15V55ZM13 61H15V63H13V61ZM25 58H23V60H25V58ZM18 58H20V60H18V58ZM15 58H13V60H15V58ZM23 55H25V57H23V55ZM20 55H18V57H20V55Z" fill="black"/>
<mask id="path-6-inside-2_85:4" fill="white">
<path fill-rule="evenodd" clip-rule="evenodd" d="M12 38C4.67098 44.0528 0 53.2094 0 63.457C0 81.6824 14.7746 96.457 33 96.457C51.2254 96.457 66 81.6824 66 63.457C66 53.2094 61.329 44.0528 54 38V42.0327C59.5541 47.4775 63 55.0648 63 63.457C63 80.0256 49.5685 93.457 33 93.457C16.4315 93.457 3 80.0256 3 63.457C3 55.0648 6.44591 47.4775 12 42.0327V38Z"/>
</mask>
<path fill-rule="evenodd" clip-rule="evenodd" d="M12 38C4.67098 44.0528 0 53.2094 0 63.457C0 81.6824 14.7746 96.457 33 96.457C51.2254 96.457 66 81.6824 66 63.457C66 53.2094 61.329 44.0528 54 38V42.0327C59.5541 47.4775 63 55.0648 63 63.457C63 80.0256 49.5685 93.457 33 93.457C16.4315 93.457 3 80.0256 3 63.457C3 55.0648 6.44591 47.4775 12 42.0327V38Z" fill="black"/>
<path d="M12 38H12.5V36.9386L11.6816 37.6145L12 38ZM54 38L54.3184 37.6145L53.5 36.9386V38H54ZM54 42.0327H53.5V42.2428L53.65 42.3898L54 42.0327ZM12 42.0327L12.35 42.3898L12.5 42.2428V42.0327H12ZM11.6816 37.6145C4.24251 43.7581 -0.5 53.054 -0.5 63.457H0.5C0.5 53.3649 5.09945 44.3474 12.3184 38.3855L11.6816 37.6145ZM-0.5 63.457C-0.5 81.9586 14.4985 96.957 33 96.957V95.957C15.0507 95.957 0.5 81.4063 0.5 63.457H-0.5ZM33 96.957C51.5015 96.957 66.5 81.9586 66.5 63.457H65.5C65.5 81.4063 50.9493 95.957 33 95.957V96.957ZM66.5 63.457C66.5 53.054 61.7575 43.7581 54.3184 37.6145L53.6816 38.3855C60.9006 44.3474 65.5 53.3649 65.5 63.457H66.5ZM53.5 38V42.0327H54.5V38H53.5ZM63.5 63.457C63.5 54.9251 59.9961 47.2106 54.35 41.6757L53.65 42.3898C59.1121 47.7444 62.5 55.2046 62.5 63.457H63.5ZM33 93.957C49.8447 93.957 63.5 80.3017 63.5 63.457H62.5C62.5 79.7494 49.2924 92.957 33 92.957V93.957ZM2.5 63.457C2.5 80.3017 16.1553 93.957 33 93.957V92.957C16.7076 92.957 3.5 79.7494 3.5 63.457H2.5ZM11.65 41.6757C6.00392 47.2106 2.5 54.9251 2.5 63.457H3.5C3.5 55.2046 6.88791 47.7444 12.35 42.3898L11.65 41.6757ZM12.5 42.0327V38H11.5V42.0327H12.5Z" fill="black" mask="url(#path-6-inside-2_85:4)"/>
</svg>
