<svg width="130" height="200" viewBox="0 0 130 200" fill="none" xmlns="http://www.w3.org/2000/svg">
<path fill-rule="evenodd" clip-rule="evenodd" d="M61.0605 16.5876C59.9727 16.5876 59.0908 17.4695 59.0908 18.5573V18.6612C58.003 18.6612 57.1212 19.543 57.1212 20.6309V165.877L59.0908 165.877H61.0605V16.5876ZM68.9393 16.5876C70.0272 16.5876 70.909 17.4695 70.909 18.5573L70.909 18.6612C71.9969 18.6612 72.8787 19.543 72.8787 20.6309V165.877L70.909 165.877H68.9393V16.5876ZM68.9393 64.2773H66.9696V165.877H68.9393V64.2773ZM61.0605 64.2773H63.0302V165.877H61.0605V64.2773Z" fill="black"/>
<mask id="path-2-inside-1_102:2" fill="white">
<path fill-rule="evenodd" clip-rule="evenodd" d="M63.0303 1.9697C63.0303 0.881864 63.9121 0 65 0C66.0878 0 66.9697 0.881863 66.9697 1.9697V12.2874C68.0603 12.3036 68.9394 13.1927 68.9394 14.2871V43.0051H78.7576C79.8621 43.0051 80.7576 43.9005 80.7576 45.0051V49.1487H49.2424V45.0051C49.2424 43.9005 50.1378 43.0051 51.2424 43.0051H61.0606V14.2871C61.0606 13.1927 61.9397 12.3036 63.0303 12.2874V1.9697ZM43.3333 51.1488C43.3333 50.0442 44.2288 49.1488 45.3333 49.1488H84.6667C85.7712 49.1488 86.6667 50.0442 86.6667 51.1488V65.5317H43.3333V51.1488ZM31.5455 65.5317C30.4409 65.5317 29.5455 66.4272 29.5455 67.5317V108.537H23.6667C22.5621 108.537 21.6667 109.432 21.6667 110.537V165.877H53.1818L53.1818 108.537V65.5317H31.5455ZM98.4545 65.5317H76.8182V108.537V112.633V165.877H108.333V110.537C108.333 109.432 107.438 108.537 106.333 108.537H100.455V67.5317C100.455 66.4272 99.5591 65.5317 98.4545 65.5317Z"/>
</mask>
<path fill-rule="evenodd" clip-rule="evenodd" d="M63.0303 1.9697C63.0303 0.881864 63.9121 0 65 0C66.0878 0 66.9697 0.881863 66.9697 1.9697V12.2874C68.0603 12.3036 68.9394 13.1927 68.9394 14.2871V43.0051H78.7576C79.8621 43.0051 80.7576 43.9005 80.7576 45.0051V49.1487H49.2424V45.0051C49.2424 43.9005 50.1378 43.0051 51.2424 43.0051H61.0606V14.2871C61.0606 13.1927 61.9397 12.3036 63.0303 12.2874V1.9697ZM43.3333 51.1488C43.3333 50.0442 44.2288 49.1488 45.3333 49.1488H84.6667C85.7712 49.1488 86.6667 50.0442 86.6667 51.1488V65.5317H43.3333V51.1488ZM31.5455 65.5317C30.4409 65.5317 29.5455 66.4272 29.5455 67.5317V108.537H23.6667C22.5621 108.537 21.6667 109.432 21.6667 110.537V165.877H53.1818L53.1818 108.537V65.5317H31.5455ZM98.4545 65.5317H76.8182V108.537V112.633V165.877H108.333V110.537C108.333 109.432 107.438 108.537 106.333 108.537H100.455V67.5317C100.455 66.4272 99.5591 65.5317 98.4545 65.5317Z" fill="#FFC90E"/>
<path d="M66.9697 12.2874H66.7197V12.5337L66.966 12.5373L66.9697 12.2874ZM68.9394 43.0051H68.6894V43.2551H68.9394V43.0051ZM80.7576 49.1487V49.3987H81.0076V49.1487H80.7576ZM49.2424 49.1487H48.9924V49.3987H49.2424V49.1487ZM61.0606 43.0051V43.2551H61.3106V43.0051H61.0606ZM63.0303 12.2874L63.034 12.5373L63.2803 12.5337V12.2874H63.0303ZM86.6667 65.5317V65.7817H86.9167V65.5317H86.6667ZM43.3333 65.5317H43.0833V65.7817H43.3333V65.5317ZM29.5455 108.537V108.787H29.7955V108.537H29.5455ZM21.6667 165.877H21.4167V166.127H21.6667V165.877ZM53.1818 165.877V166.127H53.4318L53.4318 165.877L53.1818 165.877ZM53.1818 108.537L53.4318 108.537V108.537H53.1818ZM53.1818 65.5317H53.4318V65.2817H53.1818V65.5317ZM76.8182 65.5317V65.2817H76.5682V65.5317H76.8182ZM76.8182 165.877H76.5682V166.127H76.8182V165.877ZM108.333 165.877V166.127H108.583V165.877H108.333ZM100.455 108.537H100.205V108.787H100.455V108.537ZM65 -0.25C63.7741 -0.25 62.7803 0.743792 62.7803 1.9697H63.2803C63.2803 1.01994 64.0502 0.25 65 0.25V-0.25ZM67.2197 1.9697C67.2197 0.743791 66.2259 -0.25 65 -0.25V0.25C65.9497 0.25 66.7197 1.01993 66.7197 1.9697H67.2197ZM67.2197 12.2874V1.9697H66.7197V12.2874H67.2197ZM69.1894 14.2871C69.1894 13.0559 68.2004 12.0556 66.9734 12.0374L66.966 12.5373C67.9202 12.5515 68.6894 13.3295 68.6894 14.2871H69.1894ZM69.1894 43.0051V14.2871H68.6894V43.0051H69.1894ZM78.7576 42.7551H68.9394V43.2551H78.7576V42.7551ZM81.0076 45.0051C81.0076 43.7625 80.0002 42.7551 78.7576 42.7551V43.2551C79.7241 43.2551 80.5076 44.0386 80.5076 45.0051H81.0076ZM81.0076 49.1487V45.0051H80.5076V49.1487H81.0076ZM49.2424 49.3987H80.7576V48.8987H49.2424V49.3987ZM48.9924 45.0051V49.1487H49.4924V45.0051H48.9924ZM51.2424 42.7551C49.9998 42.7551 48.9924 43.7625 48.9924 45.0051H49.4924C49.4924 44.0386 50.2759 43.2551 51.2424 43.2551V42.7551ZM61.0606 42.7551H51.2424V43.2551H61.0606V42.7551ZM60.8106 14.2871V43.0051H61.3106V14.2871H60.8106ZM63.0266 12.0374C61.7996 12.0556 60.8106 13.0559 60.8106 14.2871H61.3106C61.3106 13.3295 62.0798 12.5515 63.034 12.5373L63.0266 12.0374ZM62.7803 1.9697V12.2874H63.2803V1.9697H62.7803ZM45.3333 48.8988C44.0907 48.8988 43.0833 49.9062 43.0833 51.1488H43.5833C43.5833 50.1823 44.3668 49.3988 45.3333 49.3988V48.8988ZM84.6667 48.8988H45.3333V49.3988H84.6667V48.8988ZM86.9167 51.1488C86.9167 49.9062 85.9093 48.8988 84.6667 48.8988V49.3988C85.6332 49.3988 86.4167 50.1823 86.4167 51.1488H86.9167ZM86.9167 65.5317V51.1488H86.4167V65.5317H86.9167ZM43.3333 65.7817H86.6667V65.2817H43.3333V65.7817ZM43.0833 51.1488V65.5317H43.5833V51.1488H43.0833ZM29.7955 67.5317C29.7955 66.5652 30.579 65.7817 31.5455 65.7817V65.2817C30.3028 65.2817 29.2955 66.2891 29.2955 67.5317H29.7955ZM29.7955 108.537V67.5317H29.2955V108.537H29.7955ZM23.6667 108.787H29.5455V108.287H23.6667V108.787ZM21.9167 110.537C21.9167 109.57 22.7002 108.787 23.6667 108.787V108.287C22.424 108.287 21.4167 109.294 21.4167 110.537H21.9167ZM21.9167 165.877V110.537H21.4167V165.877H21.9167ZM53.1818 165.627H21.6667V166.127H53.1818V165.627ZM52.9318 108.537L52.9318 165.877L53.4318 165.877L53.4318 108.537L52.9318 108.537ZM52.9318 65.5317V108.537H53.4318V65.5317H52.9318ZM31.5455 65.7817H53.1818V65.2817H31.5455V65.7817ZM76.8182 65.7817H98.4545V65.2817H76.8182V65.7817ZM77.0682 108.537V65.5317H76.5682V108.537H77.0682ZM77.0682 112.633V108.537H76.5682V112.633H77.0682ZM77.0682 165.877V112.633H76.5682V165.877H77.0682ZM108.333 165.627H76.8182V166.127H108.333V165.627ZM108.083 110.537V165.877H108.583V110.537H108.083ZM106.333 108.787C107.3 108.787 108.083 109.57 108.083 110.537H108.583C108.583 109.294 107.576 108.287 106.333 108.287V108.787ZM100.455 108.787H106.333V108.287H100.455V108.787ZM100.205 67.5317V108.537H100.705V67.5317H100.205ZM98.4545 65.7817C99.421 65.7817 100.205 66.5652 100.205 67.5317H100.705C100.705 66.2891 99.6972 65.2817 98.4545 65.2817V65.7817Z" fill="black" mask="url(#path-2-inside-1_102:2)"/>
<path fill-rule="evenodd" clip-rule="evenodd" d="M31.5151 74.6447H51.212V74.3947H31.5151V74.6447ZM51.212 89.1589H31.5151V88.9089H51.212V89.1589ZM51.212 93.3058H31.5151V93.0558H51.212V93.3058ZM31.5151 101.6H51.212V101.35H31.5151V101.6ZM51.212 103.673H31.5151V103.423H51.212V103.673ZM31.5151 105.747H51.212V105.497H31.5151V105.747ZM31.5151 99.5262H51.212V99.2762H31.5151V99.5262ZM51.212 97.4527H31.5151V97.2027H51.212V97.4527ZM31.5151 95.3793H51.212V95.1293H31.5151V95.3793ZM51.212 91.2323H31.5151V90.9823H51.212V91.2323ZM98.4848 89.1589H78.7878V88.9089H98.4848V89.1589ZM78.7878 74.6447H98.4848V74.3947H78.7878V74.6447ZM98.4848 99.5262H78.7878V99.2762H98.4848V99.5262ZM78.7878 101.6H98.4848V101.35H78.7878V101.6ZM98.4848 105.747H78.7878V105.497H98.4848V105.747ZM78.7878 103.673H98.4848V103.423H78.7878V103.673ZM98.4848 97.4527H78.7878V97.2027H98.4848V97.4527ZM78.7878 95.3793H98.4848V95.1293H78.7878V95.3793ZM98.4848 93.3058H78.7878V93.0558H98.4848V93.3058ZM78.7878 91.2323H98.4848V90.9823H78.7878V91.2323ZM98.4848 76.7181H78.7878V76.4681H98.4848V76.7181ZM78.7878 87.0854H98.4848V86.8354H78.7878V87.0854ZM98.4848 85.012H78.7878V84.762H98.4848V85.012ZM78.7878 82.9385H98.4848V82.6885H78.7878V82.9385ZM98.4848 80.865H78.7878V80.615H98.4848V80.865ZM78.7878 78.7916H98.4848V78.5416H78.7878V78.7916ZM51.212 87.0854H31.5151V86.8354H51.212V87.0854ZM31.5151 85.012H51.212V84.762H31.5151V85.012ZM51.212 82.9385H31.5151V82.6885H51.212V82.9385ZM31.5151 80.865H51.212V80.615H31.5151V80.865ZM51.212 78.7916H31.5151V78.5416H51.212V78.7916ZM31.5151 76.7181H51.212V76.4681H31.5151V76.7181Z" fill="black"/>
<path fill-rule="evenodd" clip-rule="evenodd" d="M104.394 111.967H100.454V116.114H104.394V111.967ZM94.5454 118.187H90.606V122.334H94.5454V118.187ZM100.454 136.848H104.394V140.995H100.454V136.848ZM100.454 143.069H104.394V147.216H100.454V143.069ZM49.2424 145.142H45.303V149.289H49.2424V145.142ZM90.606 143.069H94.5454V147.216H90.606V143.069ZM84.6969 143.069H80.7575V147.216H84.6969V143.069ZM94.5454 136.848H90.606V140.995H94.5454V136.848ZM80.7575 136.848H84.6969V140.995H80.7575V136.848ZM100.454 130.628H104.394V134.775H100.454V130.628ZM94.5454 130.628H90.606V134.775H94.5454V130.628ZM80.7575 130.628H84.6969V134.775H80.7575V130.628ZM104.394 124.408H100.454V128.555H104.394V124.408ZM90.606 124.408H94.5454V128.555H90.606V124.408ZM84.6969 124.408H80.7575V128.555H84.6969V124.408ZM100.454 118.187H104.394V122.334H100.454V118.187ZM39.3939 138.922H35.4545V143.069H39.3939V138.922ZM80.7575 118.187H84.6969V122.334H80.7575V118.187ZM90.606 111.967H94.5454V116.114H90.606V111.967ZM84.6969 111.967H80.7575V116.114H84.6969V111.967ZM35.4545 126.481H39.3939V130.628H35.4545V126.481ZM29.5454 145.142H25.606V149.289H29.5454V145.142ZM35.4545 145.142H39.3939V149.289H35.4545V145.142ZM29.5454 138.922H25.606V143.069H29.5454V138.922ZM45.303 126.481H49.2424V130.628H45.303V126.481ZM49.2424 138.922H45.303V143.069H49.2424V138.922ZM45.303 132.702H49.2424V136.848H45.303V132.702ZM39.3939 132.702H35.4545V136.848H39.3939V132.702ZM25.606 132.702H29.5454V136.848H25.606V132.702ZM29.5454 114.04H25.606V118.187H29.5454V114.04ZM25.606 126.481H29.5454V130.628H25.606V126.481ZM49.2424 120.261H45.303V124.408H49.2424V120.261ZM35.4545 120.261H39.3939V124.408H35.4545V120.261ZM29.5454 120.261H25.606V124.408H29.5454V120.261ZM45.303 114.04H49.2424V118.187H45.303V114.04ZM39.3939 114.04H35.4545V118.187H39.3939V114.04Z" fill="black"/>
<mask id="path-6-inside-2_102:2" fill="white">
<path fill-rule="evenodd" clip-rule="evenodd" d="M23.6364 78.7915C9.20041 91.3417 0 110.328 0 131.576C0 169.365 29.1015 200 65 200C100.899 200 130 169.365 130 131.576C130 110.328 120.8 91.3417 106.364 78.7915V87.1532C117.303 98.4428 124.091 114.175 124.091 131.576C124.091 165.93 97.635 193.78 65 193.78C32.365 193.78 5.90909 165.93 5.90909 131.576C5.90909 114.175 12.6965 98.4428 23.6364 87.1532V78.7915Z"/>
</mask>
<path fill-rule="evenodd" clip-rule="evenodd" d="M23.6364 78.7915C9.20041 91.3417 0 110.328 0 131.576C0 169.365 29.1015 200 65 200C100.899 200 130 169.365 130 131.576C130 110.328 120.8 91.3417 106.364 78.7915V87.1532C117.303 98.4428 124.091 114.175 124.091 131.576C124.091 165.93 97.635 193.78 65 193.78C32.365 193.78 5.90909 165.93 5.90909 131.576C5.90909 114.175 12.6965 98.4428 23.6364 87.1532V78.7915Z" fill="black"/>
<path d="M23.6364 78.7915H24.1364V77.6943L23.3083 78.4142L23.6364 78.7915ZM106.364 78.7915L106.692 78.4142L105.864 77.6943V78.7915H106.364ZM106.364 87.1532H105.864V87.3557L106.005 87.5012L106.364 87.1532ZM23.6364 87.1532L23.9954 87.5012L24.1364 87.3558V87.1532H23.6364ZM23.3083 78.4142C8.76397 91.0586 -0.5 110.182 -0.5 131.576H0.5C0.5 110.473 9.63685 91.6248 23.9644 79.1689L23.3083 78.4142ZM-0.5 131.576C-0.5 169.617 28.8015 200.5 65 200.5V199.5C29.4015 199.5 0.5 169.114 0.5 131.576H-0.5ZM65 200.5C101.199 200.5 130.5 169.617 130.5 131.576H129.5C129.5 169.114 100.598 199.5 65 199.5V200.5ZM130.5 131.576C130.5 110.182 121.236 91.0585 106.692 78.4142L106.036 79.1688C120.363 91.6248 129.5 110.473 129.5 131.576H130.5ZM105.864 78.7915V87.1532H106.864V78.7915H105.864ZM124.591 131.576C124.591 114.043 117.752 98.187 106.723 86.8053L106.005 87.5012C116.855 98.6985 123.591 114.306 123.591 131.576H124.591ZM65 194.28C97.935 194.28 124.591 166.182 124.591 131.576H123.591C123.591 165.678 97.335 193.28 65 193.28V194.28ZM5.40909 131.576C5.40909 166.182 32.065 194.28 65 194.28V193.28C32.665 193.28 6.40909 165.678 6.40909 131.576H5.40909ZM23.2773 86.8053C12.2481 98.187 5.40909 114.043 5.40909 131.576H6.40909C6.40909 114.306 13.1449 98.6986 23.9954 87.5012L23.2773 86.8053ZM24.1364 87.1532V78.7915H23.1364V87.1532H24.1364Z" fill="black" mask="url(#path-6-inside-2_102:2)"/>
</svg>
